<?xml version="1.0" encoding="UTF-8" standalone="no"?>
<svg
   width="681"
   height="936"
   viewBox="0 0 681 936"
   fill="none"
   version="1.1"
   id="svg97"
   sodipodi:docname="1Star.svg"
   inkscape:version="1.4.2 (ebf0e940d0, 2025-05-08)"
   xmlns:inkscape="http://www.inkscape.org/namespaces/inkscape"
   xmlns:sodipodi="http://sodipodi.sourceforge.net/DTD/sodipodi-0.dtd"
   xmlns="http://www.w3.org/2000/svg"
   xmlns:svg="http://www.w3.org/2000/svg">
  <sodipodi:namedview
     id="namedview97"
     pagecolor="#ffffff"
     bordercolor="#000000"
     borderopacity="0.25"
     inkscape:showpageshadow="2"
     inkscape:pageopacity="0.0"
     inkscape:pagecheckerboard="0"
     inkscape:deskcolor="#d1d1d1"
     inkscape:zoom="0.79166667"
     inkscape:cx="340.42105"
     inkscape:cy="468"
     inkscape:window-width="1920"
     inkscape:window-height="946"
     inkscape:window-x="0"
     inkscape:window-y="0"
     inkscape:window-maximized="1"
     inkscape:current-layer="g97" />
  <g
     clip-path="url(#clip0_133_4009)"
     id="g97">
    <path
       d="M680.31 0H0V935.43H680.31V0Z"
       fill="white"
       id="path1" />
    <path
       d="M583.38 14.1699H571.37L14.1699 571.37V583.38L583.38 14.1699Z"
       fill="#8FD3F5"
       id="path2" />
    <path
       d="M559.34 14.1699H547.32L14.1699 547.32V559.34L559.34 14.1699Z"
       fill="#8FD3F5"
       id="path3" />
    <path
       d="M666.14 147.79V135.77L14.1699 787.74V799.76L666.14 147.79Z"
       fill="#8FD3F5"
       id="path4" />
    <path
       d="M535.3 14.1699H523.28L14.1699 523.28V535.3L535.3 14.1699Z"
       fill="#8FD3F5"
       id="path5" />
    <path
       d="M463.17 14.1699H451.16L14.1699 451.16V463.17L463.17 14.1699Z"
       fill="#8FD3F5"
       id="path6" />
    <path
       d="M487.21 14.1699H475.2L14.1699 475.2V487.21L487.21 14.1699Z"
       fill="#8FD3F5"
       id="path7" />
    <path
       d="M511.26 14.1699H499.24L14.1699 499.24V511.26L511.26 14.1699Z"
       fill="#8FD3F5"
       id="path8" />
    <path
       d="M666.14 51.6199V39.5999L14.1699 691.57V703.59L666.14 51.6199Z"
       fill="#8FD3F5"
       id="path9" />
    <path
       d="M666.14 99.6999V87.6899L14.1699 739.66V751.67L666.14 99.6999Z"
       fill="#8FD3F5"
       id="path10" />
    <path
       d="M666.14 75.6599V63.6499L14.1699 715.62V727.63L666.14 75.6599Z"
       fill="#8FD3F5"
       id="path11" />
    <path
       d="M631.46 14.1699H619.45L14.1699 619.45V631.46L631.46 14.1699Z"
       fill="#8FD3F5"
       id="path12" />
    <path
       d="M666.14 123.75V111.73L14.1699 763.7V775.71L666.14 123.75Z"
       fill="#8FD3F5"
       id="path13" />
    <path
       d="M655.51 14.1699H643.49L14.1699 643.49V655.51L655.51 14.1699Z"
       fill="#8FD3F5"
       id="path14" />
    <path
       d="M666.14 27.5799V15.5599L14.1699 667.53V679.55L666.14 27.5799Z"
       fill="#8FD3F5"
       id="path15" />
    <path
       d="M439.13 14.1699H427.12L14.1699 427.12V439.13L439.13 14.1699Z"
       fill="#8FD3F5"
       id="path16" />
    <path
       d="M607.42 14.1699H595.41L14.1699 595.41V607.42L607.42 14.1699Z"
       fill="#8FD3F5"
       id="path17" />
    <path
       d="M150.63 14.1699H138.62L14.1699 138.62V150.63L150.63 14.1699Z"
       fill="#8FD3F5"
       id="path18" />
    <path
       d="M126.59 14.1699H114.57L14.1699 114.57V126.59L126.59 14.1699Z"
       fill="#8FD3F5"
       id="path19" />
    <path
       d="M174.67 14.1699H162.66L14.1699 162.66V174.67L174.67 14.1699Z"
       fill="#8FD3F5"
       id="path20" />
    <path
       d="M198.71 14.1699H186.7L14.1699 186.7V198.71L198.71 14.1699Z"
       fill="#8FD3F5"
       id="path21" />
    <path
       d="M222.76 14.1699H210.74L14.1699 210.74V222.76L222.76 14.1699Z"
       fill="#8FD3F5"
       id="path22" />
    <path
       d="M78.5099 14.1699H66.4899L14.1699 66.4899V78.5099L78.5099 14.1699Z"
       fill="#8FD3F5"
       id="path23" />
    <path
       d="M102.55 14.1699H90.5299L14.1699 90.5299V102.55L102.55 14.1699Z"
       fill="#8FD3F5"
       id="path24" />
    <path
       d="M14.1699 42.4499V54.4599L54.4599 14.1699H42.4499L14.1699 42.4499Z"
       fill="#8FD3F5"
       id="path25" />
    <path
       d="M367.01 14.1699H354.99L14.1699 354.99V367.01L367.01 14.1699Z"
       fill="#8FD3F5"
       id="path26" />
    <path
       d="M415.09 14.1699H403.07L14.1699 403.07V415.09L415.09 14.1699Z"
       fill="#8FD3F5"
       id="path27" />
    <path
       d="M342.96 14.1699H330.95L14.1699 330.95V342.96L342.96 14.1699Z"
       fill="#8FD3F5"
       id="path28" />
    <path
       d="M391.05 14.1699H379.03L14.1699 379.03V391.05L391.05 14.1699Z"
       fill="#8FD3F5"
       id="path29" />
    <path
       d="M294.88 14.1699H282.87L14.1699 282.87V294.88L294.88 14.1699Z"
       fill="#8FD3F5"
       id="path30" />
    <path
       d="M270.84 14.1699H258.82L14.1699 258.82V270.84L270.84 14.1699Z"
       fill="#8FD3F5"
       id="path31" />
    <path
       d="M318.92 14.1699H306.91L14.1699 306.91V318.92L318.92 14.1699Z"
       fill="#8FD3F5"
       id="path32" />
    <path
       d="M246.8 14.1699H234.78L14.1699 234.78V246.8L246.8 14.1699Z"
       fill="#8FD3F5"
       id="path33" />
    <path
       d="M666.14 340.12V328.1L72.9899 921.26H84.9999L666.14 340.12Z"
       fill="#8FD3F5"
       id="path34" />
    <path
       d="M666.14 676.7V664.69L409.57 921.26H421.58L666.14 676.7Z"
       fill="#8FD3F5"
       id="path35" />
    <path
       d="M666.14 700.74V688.73L433.61 921.26H445.63L666.14 700.74Z"
       fill="#8FD3F5"
       id="path36" />
    <path
       d="M666.14 772.87V760.85L505.74 921.26H517.75L666.14 772.87Z"
       fill="#8FD3F5"
       id="path37" />
    <path
       d="M666.14 748.83V736.81L481.69 921.26H493.71L666.14 748.83Z"
       fill="#8FD3F5"
       id="path38" />
    <path
       d="M666.14 724.79V712.77L457.65 921.26H469.67L666.14 724.79Z"
       fill="#8FD3F5"
       id="path39" />
    <path
       d="M666.14 604.58V592.56L337.44 921.26H349.46L666.14 604.58Z"
       fill="#8FD3F5"
       id="path40" />
    <path
       d="M666.14 652.66V640.65L385.53 921.26H397.54L666.14 652.66Z"
       fill="#8FD3F5"
       id="path41" />
    <path
       d="M666.14 628.62V616.6L361.49 921.26H373.5L666.14 628.62Z"
       fill="#8FD3F5"
       id="path42" />
    <path
       d="M666.14 844.99V832.98L577.86 921.26H589.88L666.14 844.99Z"
       fill="#8FD3F5"
       id="path43" />
    <path
       d="M30.4199 14.1699H14.1699V30.4199L30.4199 14.1699Z"
       fill="#8FD3F5"
       id="path44" />
    <path
       d="M649.99 921.26H666.14V905.1L649.99 921.26Z"
       fill="#8FD3F5"
       id="path45" />
    <path
       d="M666.14 893.08V881.06L625.94 921.26H637.96L666.14 893.08Z"
       fill="#8FD3F5"
       id="path46" />
    <path
       d="M666.14 869.04V857.02L601.9 921.26H613.92L666.14 869.04Z"
       fill="#8FD3F5"
       id="path47" />
    <path
       d="M666.14 820.95V808.94L553.82 921.26H565.83L666.14 820.95Z"
       fill="#8FD3F5"
       id="path48" />
    <path
       d="M666.14 796.91V784.9L529.78 921.26H541.79L666.14 796.91Z"
       fill="#8FD3F5"
       id="path49" />
    <path
       d="M666.14 580.54V568.52L313.4 921.26H325.42L666.14 580.54Z"
       fill="#8FD3F5"
       id="path50" />
    <path
       d="M666.14 556.49V544.48L289.36 921.26H301.38L666.14 556.49Z"
       fill="#8FD3F5"
       id="path51" />
    <path
       d="M666.14 268V255.98L14.1699 907.95V919.96L666.14 268Z"
       fill="#8FD3F5"
       id="path52" />
    <path
       d="M666.14 292.04V280.02L24.8999 921.26H36.9199L666.14 292.04Z"
       fill="#8FD3F5"
       id="path53" />
    <path
       d="M666.14 316.08V304.06L48.9399 921.26H60.9599L666.14 316.08Z"
       fill="#8FD3F5"
       id="path54" />
    <path
       d="M666.14 195.87V183.85L14.1699 835.82V847.84L666.14 195.87Z"
       fill="#8FD3F5"
       id="path55" />
    <path
       d="M666.14 364.16V352.15L97.0299 921.26H109.04L666.14 364.16Z"
       fill="#8FD3F5"
       id="path56" />
    <path
       d="M666.14 219.91V207.9L14.1699 859.86V871.88L666.14 219.91Z"
       fill="#8FD3F5"
       id="path57" />
    <path
       d="M666.14 243.95V231.94L14.1699 883.91V895.92L666.14 243.95Z"
       fill="#8FD3F5"
       id="path58" />
    <path
       d="M666.14 436.29V424.27L169.15 921.26H181.17L666.14 436.29Z"
       fill="#8FD3F5"
       id="path59" />
    <path
       d="M666.14 508.41V496.4L241.28 921.26H253.29L666.14 508.41Z"
       fill="#8FD3F5"
       id="path60" />
    <path
       d="M666.14 484.37V472.35L217.24 921.26H229.25L666.14 484.37Z"
       fill="#8FD3F5"
       id="path61" />
    <path
       d="M666.14 532.45V520.44L265.32 921.26H277.33L666.14 532.45Z"
       fill="#8FD3F5"
       id="path62" />
    <path
       d="M666.14 171.83V159.81L14.1699 811.78V823.8L666.14 171.83Z"
       fill="#8FD3F5"
       id="path63" />
    <path
       d="M666.14 412.24V400.23L145.11 921.26H157.13L666.14 412.24Z"
       fill="#8FD3F5"
       id="path64" />
    <path
       d="M666.14 388.2V376.19L121.07 921.26H133.09L666.14 388.2Z"
       fill="#8FD3F5"
       id="path65" />
    <path
       d="M666.14 460.33V448.31L193.19 921.26H205.21L666.14 460.33Z"
       fill="#8FD3F5"
       id="path66" />
    <path
       d="M651.97 28.3496H28.3496V907.09H651.97V28.3496Z"
       fill="white"
       id="path67" />
    <path
       opacity="0.75"
       d="M50.7109 48.1901L50.7109 530.08H631.811V48.1901L50.7109 48.1901Z"
       stroke="#8FD3F5"
       stroke-width="3"
       id="path68" />
    <path
       opacity="0.75"
       d="M50.7109 561.26L50.7109 887.24H631.811V561.26H50.7109Z"
       stroke="#8FD3F5"
       stroke-width="3"
       id="path69" />
    <path
       d="M638.899 90.7109H43.6191V487.561H638.899V90.7109Z"
       fill="white"
       id="path70" />
    <path
       d="M589.29 34.0195H93.2305V544.26H589.29V34.0195Z"
       fill="white"
       id="path71" />
    <path
       fill-rule="evenodd"
       clip-rule="evenodd"
       d="M340.76 173.881C270.343 173.881 213.26 230.965 213.26 301.381C213.26 371.797 270.343 428.881 340.76 428.881C411.176 428.881 468.26 371.797 468.26 301.381C468.26 230.965 411.176 173.881 340.76 173.881ZM209.26 301.381C209.26 228.755 268.134 169.881 340.76 169.881C413.385 169.881 472.26 228.755 472.26 301.381C472.26 374.006 413.385 432.881 340.76 432.881C268.134 432.881 209.26 374.006 209.26 301.381Z"
       fill="#8FD3F5"
       id="path72" />
    <path
       fill-rule="evenodd"
       clip-rule="evenodd"
       d="M340.76 192.381C280.561 192.381 231.76 241.182 231.76 301.381C231.76 361.58 280.561 410.381 340.76 410.381C400.959 410.381 449.76 361.58 449.76 301.381C449.76 241.182 400.959 192.381 340.76 192.381ZM229.76 301.381C229.76 240.077 279.456 190.381 340.76 190.381C402.063 190.381 451.76 240.077 451.76 301.381C451.76 362.684 402.063 412.381 340.76 412.381C279.456 412.381 229.76 362.684 229.76 301.381Z"
       fill="#8FD3F5"
       id="path73" />
    <path
       fill-rule="evenodd"
       clip-rule="evenodd"
       d="M340.76 210.381C290.502 210.381 249.76 251.123 249.76 301.381C249.76 351.639 290.502 392.381 340.76 392.381C391.018 392.381 431.76 351.639 431.76 301.381C431.76 251.123 391.018 210.381 340.76 210.381ZM235.76 301.381C235.76 243.391 282.77 196.381 340.76 196.381C398.75 196.381 445.76 243.391 445.76 301.381C445.76 359.371 398.75 406.381 340.76 406.381C282.77 406.381 235.76 359.371 235.76 301.381Z"
       fill="#8FD3F5"
       id="path74" />
    <path
       opacity="0.1"
       d="M76.4009 593.859H64.8809V605.26M76.4009 593.859V605.26M76.4009 593.859H87.9209V605.26M76.4009 605.26H64.8809M76.4009 605.26H87.9209M76.4009 605.26V616.662M64.8809 605.26V616.662M87.9209 605.26V616.662M99.4309 593.859H87.9109V605.26M99.4309 593.859V605.26M99.4309 593.859H110.951V605.26M99.4309 605.26H87.9109M99.4309 605.26H110.951M99.4309 605.26V616.662M87.9109 605.26V616.662M110.951 605.26V616.662M122.461 593.859H110.941V605.26M122.461 593.859V605.26M122.461 593.859H133.981M122.461 605.26H110.941M122.461 605.26H133.981M122.461 605.26V616.662M110.941 605.26V616.662M133.981 593.859V605.26M133.981 593.859H145.501V605.26M133.981 605.26H145.501M133.981 605.26V616.662M145.501 605.26V616.662M157.011 593.859H145.491V605.26M157.011 593.859V605.26M157.011 593.859H168.531V605.26M157.011 605.26H145.491M157.011 605.26H168.531M157.011 605.26V616.662M145.491 605.26V616.662M168.531 605.26V616.662M180.041 593.859H168.521V605.26M180.041 593.859V605.26M180.041 593.859H191.561M180.041 605.26H168.521M180.041 605.26H191.561M180.041 605.26V616.662M168.521 605.26V616.662M191.561 593.859V605.26M191.561 593.859H203.081V605.26M191.561 605.26H203.081M191.561 605.26V616.662M203.081 605.26V616.662M214.591 593.859H203.071V605.26M214.591 593.859V605.26M214.591 593.859H226.111V605.26M214.591 605.26H203.071M214.591 605.26H226.111M214.591 605.26V616.662M203.071 605.26V616.662M226.111 605.26V616.662M237.621 593.859H226.101V605.26M237.621 593.859V605.26M237.621 593.859H249.141V605.26M237.621 605.26H226.101M237.621 605.26H249.141M237.621 605.26V616.662M226.101 605.26V616.662M249.141 605.26V616.662M260.651 593.859H249.131V605.26M260.651 593.859V605.26M260.651 593.859H272.171M260.651 605.26H249.131M260.651 605.26H272.171M260.651 605.26V616.662M249.131 605.26V616.662M272.171 593.859V605.26M272.171 593.859H283.691V605.26M272.171 605.26H283.691M272.171 605.26V616.662M283.691 605.26V616.662M295.201 593.859H283.681V605.26M295.201 593.859V605.26M295.201 593.859H306.721V605.26M295.201 605.26H283.681M295.201 605.26H306.721M295.201 605.26V616.662M283.681 605.26V616.662M306.721 605.26V616.662M318.231 593.859H306.711V605.26M318.231 593.859V605.26M318.231 593.859H329.751V605.26M318.231 605.26H306.711M318.231 605.26H329.751M318.231 605.26V616.662M306.711 605.26V616.662M329.751 605.26V616.662M341.261 593.859H329.741V605.26M341.261 593.859V605.26M341.261 593.859H352.781M341.261 605.26H329.741M341.261 605.26H352.781M341.261 605.26V616.662M329.741 605.26V616.662M352.781 593.859V605.26M352.781 593.859H364.301V605.26M352.781 605.26H364.301M352.781 605.26V616.662M364.301 605.26V616.662M375.811 593.859H364.291V605.26M375.811 593.859V605.26M375.811 593.859H387.331V605.26M375.811 605.26H364.291M375.811 605.26H387.331M375.811 605.26V616.662M364.291 605.26V616.662M387.331 605.26V616.662M398.841 593.859H387.321V605.26M398.841 593.859V605.26M398.841 593.859H410.361V605.26M398.841 605.26H387.321M398.841 605.26H410.361M398.841 605.26V616.662M387.321 605.26V616.662M410.361 605.26V616.662M421.871 593.859H410.351V605.26M421.871 593.859V605.26M421.871 593.859H433.391M421.871 605.26H410.351M421.871 605.26H433.391M421.871 605.26V616.662M410.351 605.26V616.662M433.391 593.859V605.26M433.391 593.859H444.911V605.26M433.391 605.26H444.911M433.391 605.26V616.662M444.911 605.26V616.662M456.421 593.859H444.901V605.26M456.421 593.859V605.26M456.421 593.859H467.941V605.26M456.421 605.26H444.901M456.421 605.26H467.941M456.421 605.26V616.662M444.901 605.26V616.662M467.941 605.26V616.662M479.451 593.859H467.931V605.26M479.451 593.859V605.26M479.451 593.859H490.971V605.26M479.451 605.26H467.931M479.451 605.26H490.971M479.451 605.26V616.662M467.931 605.26V616.662M490.971 605.26V616.662M502.481 593.859H490.961V605.26M502.481 593.859V605.26M502.481 593.859H514.001M502.481 605.26H490.961M502.481 605.26H514.001M502.481 605.26V616.662M490.961 605.26V616.662M514.001 593.859V605.26M514.001 593.859H525.521V605.26M514.001 605.26H525.521M514.001 605.26V616.662M525.521 605.26V616.662M537.031 593.859H525.511V605.26M537.031 593.859V605.26M537.031 593.859H548.551V605.26M537.031 605.26H525.511M537.031 605.26H548.551M537.031 605.26V616.662M525.511 605.26V616.662M548.551 605.26V616.662M560.061 593.859H548.541V605.26M560.061 593.859V605.26M560.061 593.859H571.581V605.26M560.061 605.26H548.541M560.061 605.26H571.581M560.061 605.26V616.662M548.541 605.26V616.662M571.581 605.26V616.662M583.091 593.859H571.571V605.26M583.091 593.859V605.26M583.091 593.859H594.611M583.091 605.26H571.571M583.091 605.26H594.611M583.091 605.26V616.662M571.571 605.26V616.662M594.611 593.859V605.26M594.611 593.859H606.131V605.26M594.611 605.26H606.131M594.611 605.26V616.662M606.131 605.26V616.662M617.641 605.26V593.859H606.121V605.26M617.641 605.26H606.121M617.641 605.26V616.662M606.121 605.26V616.662M76.4009 616.662H64.8809M76.4009 616.662H87.9209M76.4009 616.662V628.063M64.8809 616.662V628.063H76.4009M87.9209 616.662V628.063H76.4009M99.4309 616.662H87.9109M99.4309 616.662H110.951M99.4309 616.662V628.063M87.9109 616.662V628.063H99.4309M110.951 616.662V628.063H99.4309M122.461 616.662H110.941M122.461 616.662H133.981M122.461 616.662V628.063M110.941 616.662V628.063H122.461M133.981 616.662H145.501M133.981 616.662V628.063M145.501 616.662V628.063H133.981M157.011 616.662H145.491M157.011 616.662H168.531M157.011 616.662V628.063M145.491 616.662V628.063H157.011M168.531 616.662V628.063H157.011M180.041 616.662H168.521M180.041 616.662H191.561M180.041 616.662V628.063M168.521 616.662V628.063H180.041M191.561 616.662H203.081M191.561 616.662V628.063M203.081 616.662V628.063H191.561M214.591 616.662H203.071M214.591 616.662H226.111M214.591 616.662V628.063M203.071 616.662V628.063H214.591M226.111 616.662V628.063H214.591M237.621 616.662H226.101M237.621 616.662H249.141M237.621 616.662V628.063M226.101 616.662V628.063H237.621M249.141 616.662V628.063H237.621M260.651 616.662H249.131M260.651 616.662H272.171M260.651 616.662V628.063M249.131 616.662V628.063H260.651M272.171 616.662H283.691M272.171 616.662V628.063M283.691 616.662V628.063H272.171M295.201 616.662H283.681M295.201 616.662H306.721M295.201 616.662V628.063M283.681 616.662V628.063H295.201M306.721 616.662V628.063H295.201M318.231 616.662H306.711M318.231 616.662H329.751M318.231 616.662V628.063M306.711 616.662V628.063H318.231M329.751 616.662V628.063H318.231M341.261 616.662H329.741M341.261 616.662H352.781M341.261 616.662V628.063M329.741 616.662V628.063H341.261M352.781 616.662H364.301M352.781 616.662V628.063M364.301 616.662V628.063H352.781M375.811 616.662H364.291M375.811 616.662H387.331M375.811 616.662V628.063M364.291 616.662V628.063H375.811M387.331 616.662V628.063H375.811M398.841 616.662H387.321M398.841 616.662H410.361M398.841 616.662V628.063M387.321 616.662V628.063H398.841M410.361 616.662V628.063H398.841M421.871 616.662H410.351M421.871 616.662H433.391M421.871 616.662V628.063M410.351 616.662V628.063H421.871M433.391 616.662H444.911M433.391 616.662V628.063M444.911 616.662V628.063H433.391M456.421 616.662H444.901M456.421 616.662H467.941M456.421 616.662V628.063M444.901 616.662V628.063H456.421M467.941 616.662V628.063H456.421M479.451 616.662H467.931M479.451 616.662H490.971M479.451 616.662V628.063M467.931 616.662V628.063H479.451M490.971 616.662V628.063H479.451M502.481 616.662H490.961M502.481 616.662H514.001M502.481 616.662V628.063M490.961 616.662V628.063H502.481M514.001 616.662H525.521M514.001 616.662V628.063M525.521 616.662V628.063H514.001M537.031 616.662H525.511M537.031 616.662H548.551M537.031 616.662V628.063M525.511 616.662V628.063H537.031M548.551 616.662V628.063H537.031M560.061 616.662H548.541M560.061 616.662H571.581M560.061 616.662V628.063M548.541 616.662V628.063H560.061M571.581 616.662V628.063H560.061M583.091 616.662H571.571M583.091 616.662H594.611M583.091 616.662V628.063M571.571 616.662V628.063H583.091M594.611 616.662H606.131M594.611 616.662V628.063M606.131 616.662V628.063H594.611M617.641 616.662H606.121M617.641 616.662V628.063H606.121V616.662M122.461 628.063H133.981M180.041 628.063H191.561M260.651 628.063H272.171M341.261 628.063H352.781M421.871 628.063H433.391M502.481 628.063H514.001M583.091 628.063H594.611M76.4009 628.053H64.8809V639.454M76.4009 628.053V639.454M76.4009 628.053H87.9209V639.454M76.4009 639.454H64.8809M76.4009 639.454H87.9209M76.4009 639.454V650.855M64.8809 639.454V650.855M87.9209 639.454V650.855M99.4309 628.053H87.9109V639.454M99.4309 628.053V639.454M99.4309 628.053H110.951V639.454M99.4309 639.454H87.9109M99.4309 639.454H110.951M99.4309 639.454V650.855M87.9109 639.454V650.855M110.951 639.454V650.855M122.461 628.053H110.941V639.454M122.461 628.053V639.454M122.461 628.053H133.981M122.461 639.454H110.941M122.461 639.454H133.981M122.461 639.454V650.855M110.941 639.454V650.855M133.981 628.053V639.454M133.981 628.053H145.501V639.454M133.981 639.454H145.501M133.981 639.454V650.855M145.501 639.454V650.855M157.011 628.053H145.491V639.454M157.011 628.053V639.454M157.011 628.053H168.531V639.454M157.011 639.454H145.491M157.011 639.454H168.531M157.011 639.454V650.855M145.491 639.454V650.855M168.531 639.454V650.855M180.041 628.053H168.521V639.454M180.041 628.053V639.454M180.041 628.053H191.561M180.041 639.454H168.521M180.041 639.454H191.561M180.041 639.454V650.855M168.521 639.454V650.855M191.561 628.053V639.454M191.561 628.053H203.081V639.454M191.561 639.454H203.081M191.561 639.454V650.855M203.081 639.454V650.855M214.591 628.053H203.071V639.454M214.591 628.053V639.454M214.591 628.053H226.111V639.454M214.591 639.454H203.071M214.591 639.454H226.111M214.591 639.454V650.855M203.071 639.454V650.855M226.111 639.454V650.855M237.621 628.053H226.101V639.454M237.621 628.053V639.454M237.621 628.053H249.141V639.454M237.621 639.454H226.101M237.621 639.454H249.141M237.621 639.454V650.855M226.101 639.454V650.855M249.141 639.454V650.855M260.651 628.053H249.131V639.454M260.651 628.053V639.454M260.651 628.053H272.171M260.651 639.454H249.131M260.651 639.454H272.171M260.651 639.454V650.855M249.131 639.454V650.855M272.171 628.053V639.454M272.171 628.053H283.691V639.454M272.171 639.454H283.691M272.171 639.454V650.855M283.691 639.454V650.855M295.201 628.053H283.681V639.454M295.201 628.053V639.454M295.201 628.053H306.721V639.454M295.201 639.454H283.681M295.201 639.454H306.721M295.201 639.454V650.855M283.681 639.454V650.855M306.721 639.454V650.855M318.231 628.053H306.711V639.454M318.231 628.053V639.454M318.231 628.053H329.751V639.454M318.231 639.454H306.711M318.231 639.454H329.751M318.231 639.454V650.855M306.711 639.454V650.855M329.751 639.454V650.855M341.261 628.053H329.741V639.454M341.261 628.053V639.454M341.261 628.053H352.781M341.261 639.454H329.741M341.261 639.454H352.781M341.261 639.454V650.855M329.741 639.454V650.855M352.781 628.053V639.454M352.781 628.053H364.301V639.454M352.781 639.454H364.301M352.781 639.454V650.855M364.301 639.454V650.855M375.811 628.053H364.291V639.454M375.811 628.053V639.454M375.811 628.053H387.331V639.454M375.811 639.454H364.291M375.811 639.454H387.331M375.811 639.454V650.855M364.291 639.454V650.855M387.331 639.454V650.855M398.841 628.053H387.321V639.454M398.841 628.053V639.454M398.841 628.053H410.361V639.454M398.841 639.454H387.321M398.841 639.454H410.361M398.841 639.454V650.855M387.321 639.454V650.855M410.361 639.454V650.855M421.871 628.053H410.351V639.454M421.871 628.053V639.454M421.871 628.053H433.391M421.871 639.454H410.351M421.871 639.454H433.391M421.871 639.454V650.855M410.351 639.454V650.855M433.391 628.053V639.454M433.391 628.053H444.911V639.454M433.391 639.454H444.911M433.391 639.454V650.855M444.911 639.454V650.855M456.421 628.053H444.901V639.454M456.421 628.053V639.454M456.421 628.053H467.941V639.454M456.421 639.454H444.901M456.421 639.454H467.941M456.421 639.454V650.855M444.901 639.454V650.855M467.941 639.454V650.855M479.451 628.053H467.931V639.454M479.451 628.053V639.454M479.451 628.053H490.971V639.454M479.451 639.454H467.931M479.451 639.454H490.971M479.451 639.454V650.855M467.931 639.454V650.855M490.971 639.454V650.855M502.481 628.053H490.961V639.454M502.481 628.053V639.454M502.481 628.053H514.001M502.481 639.454H490.961M502.481 639.454H514.001M502.481 639.454V650.855M490.961 639.454V650.855M514.001 628.053V639.454M514.001 628.053H525.521V639.454M514.001 639.454H525.521M514.001 639.454V650.855M525.521 639.454V650.855M537.031 628.053H525.511V639.454M537.031 628.053V639.454M537.031 628.053H548.551V639.454M537.031 639.454H525.511M537.031 639.454H548.551M537.031 639.454V650.855M525.511 639.454V650.855M548.551 639.454V650.855M560.061 628.053H548.541V639.454M560.061 628.053V639.454M560.061 628.053H571.581V639.454M560.061 639.454H548.541M560.061 639.454H571.581M560.061 639.454V650.855M548.541 639.454V650.855M571.581 639.454V650.855M583.091 628.053H571.571V639.454M583.091 628.053V639.454M583.091 628.053H594.611M583.091 639.454H571.571M583.091 639.454H594.611M583.091 639.454V650.855M571.571 639.454V650.855M594.611 628.053V639.454M594.611 628.053H606.131V639.454M594.611 639.454H606.131M594.611 639.454V650.855M606.131 639.454V650.855M617.641 639.454V628.053H606.121V639.454M617.641 639.454H606.121M617.641 639.454V650.855M606.121 639.454V650.855M76.4009 650.855H64.8809M76.4009 650.855H87.9209M76.4009 650.855V662.256M64.8809 650.855V662.256M87.9209 650.855V662.256M99.4309 650.855H87.9109M99.4309 650.855H110.951M99.4309 650.855V662.256M87.9109 650.855V662.256M110.951 650.855V662.256M122.461 650.855H110.941M122.461 650.855H133.981M122.461 650.855V662.256M110.941 650.855V662.256M133.981 650.855H145.501M133.981 650.855V662.256M145.501 650.855V662.256M157.011 650.855H145.491M157.011 650.855H168.531M157.011 650.855V662.256M145.491 650.855V662.256M168.531 650.855V662.256M180.041 650.855H168.521M180.041 650.855H191.561M180.041 650.855V662.256M168.521 650.855V662.256M191.561 650.855H203.081M191.561 650.855V662.256M203.081 650.855V662.256M214.591 650.855H203.071M214.591 650.855H226.111M214.591 650.855V662.256M203.071 650.855V662.256M226.111 650.855V662.256M237.621 650.855H226.101M237.621 650.855H249.141M237.621 650.855V662.256M226.101 650.855V662.256M249.141 650.855V662.256M260.651 650.855H249.131M260.651 650.855H272.171M260.651 650.855V662.256M249.131 650.855V662.256M272.171 650.855H283.691M272.171 650.855V662.256M283.691 650.855V662.256M295.201 650.855H283.681M295.201 650.855H306.721M295.201 650.855V662.256M283.681 650.855V662.256M306.721 650.855V662.256M318.231 650.855H306.711M318.231 650.855H329.751M318.231 650.855V662.256M306.711 650.855V662.256M329.751 650.855V662.256M341.261 650.855H329.741M341.261 650.855H352.781M341.261 650.855V662.256M329.741 650.855V662.256M352.781 650.855H364.301M352.781 650.855V662.256M364.301 650.855V662.256M375.811 650.855H364.291M375.811 650.855H387.331M375.811 650.855V662.256M364.291 650.855V662.256M387.331 650.855V662.256M398.841 650.855H387.321M398.841 650.855H410.361M398.841 650.855V662.256M387.321 650.855V662.256M410.361 650.855V662.256M421.871 650.855H410.351M421.871 650.855H433.391M421.871 650.855V662.256M410.351 650.855V662.256M433.391 650.855H444.911M433.391 650.855V662.256M444.911 650.855V662.256M456.421 650.855H444.901M456.421 650.855H467.941M456.421 650.855V662.256M444.901 650.855V662.256M467.941 650.855V662.256M479.451 650.855H467.931M479.451 650.855H490.971M479.451 650.855V662.256M467.931 650.855V662.256M490.971 650.855V662.256M502.481 650.855H490.961M502.481 650.855H514.001M502.481 650.855V662.256M490.961 650.855V662.256M514.001 650.855H525.521M514.001 650.855V662.256M525.521 650.855V662.256M537.031 650.855H525.511M537.031 650.855H548.551M537.031 650.855V662.256M525.511 650.855V662.256M548.551 650.855V662.256M560.061 650.855H548.541M560.061 650.855H571.581M560.061 650.855V662.256M548.541 650.855V662.256M571.581 650.855V662.256M583.091 650.855H571.571M583.091 650.855H594.611M583.091 650.855V662.256M571.571 650.855V662.256M594.611 650.855H606.131M594.611 650.855V662.256M606.131 650.855V662.256M617.641 650.855H606.121M617.641 650.855V662.256M606.121 650.855V662.256M76.4009 662.256H64.8809M76.4009 662.256H87.9209M76.4009 662.256V673.657M64.8809 662.256V673.657M87.9209 662.256V673.657M99.4309 662.256H87.9109M99.4309 662.256H110.951M99.4309 662.256V673.657M87.9109 662.256V673.657M110.951 662.256V673.657M122.461 662.256H110.941M122.461 662.256H133.981M122.461 662.256V673.657M110.941 662.256V673.657M133.981 662.256H145.501M133.981 662.256V673.657M145.501 662.256V673.657M157.011 662.256H145.491M157.011 662.256H168.531M157.011 662.256V673.657M145.491 662.256V673.657M168.531 662.256V673.657M180.041 662.256H168.521M180.041 662.256H191.561M180.041 662.256V673.657M168.521 662.256V673.657M191.561 662.256H203.081M191.561 662.256V673.657M203.081 662.256V673.657M214.591 662.256H203.071M214.591 662.256H226.111M214.591 662.256V673.657M203.071 662.256V673.657M226.111 662.256V673.657M237.621 662.256H226.101M237.621 662.256H249.141M237.621 662.256V673.657M226.101 662.256V673.657M249.141 662.256V673.657M260.651 662.256H249.131M260.651 662.256H272.171M260.651 662.256V673.657M249.131 662.256V673.657M272.171 662.256H283.691M272.171 662.256V673.657M283.691 662.256V673.657M295.201 662.256H283.681M295.201 662.256H306.721M295.201 662.256V673.657M283.681 662.256V673.657M306.721 662.256V673.657M318.231 662.256H306.711M318.231 662.256H329.751M318.231 662.256V673.657M306.711 662.256V673.657M329.751 662.256V673.657M341.261 662.256H329.741M341.261 662.256H352.781M341.261 662.256V673.657M329.741 662.256V673.657M352.781 662.256H364.301M352.781 662.256V673.657M364.301 662.256V673.657M375.811 662.256H364.291M375.811 662.256H387.331M375.811 662.256V673.657M364.291 662.256V673.657M387.331 662.256V673.657M398.841 662.256H387.321M398.841 662.256H410.361M398.841 662.256V673.657M387.321 662.256V673.657M410.361 662.256V673.657M421.871 662.256H410.351M421.871 662.256H433.391M421.871 662.256V673.657M410.351 662.256V673.657M433.391 662.256H444.911M433.391 662.256V673.657M444.911 662.256V673.657M456.421 662.256H444.901M456.421 662.256H467.941M456.421 662.256V673.657M444.901 662.256V673.657M467.941 662.256V673.657M479.451 662.256H467.931M479.451 662.256H490.971M479.451 662.256V673.657M467.931 662.256V673.657M490.971 662.256V673.657M502.481 662.256H490.961M502.481 662.256H514.001M502.481 662.256V673.657M490.961 662.256V673.657M514.001 662.256H525.521M514.001 662.256V673.657M525.521 662.256V673.657M537.031 662.256H525.511M537.031 662.256H548.551M537.031 662.256V673.657M525.511 662.256V673.657M548.551 662.256V673.657M560.061 662.256H548.541M560.061 662.256H571.581M560.061 662.256V673.657M548.541 662.256V673.657M571.581 662.256V673.657M583.091 662.256H571.571M583.091 662.256H594.611M583.091 662.256V673.657M571.571 662.256V673.657M594.611 662.256H606.131M594.611 662.256V673.657M606.131 662.256V673.657M617.641 662.256H606.121M617.641 662.256V673.657M606.121 662.256V673.657M76.4009 673.657H64.8809M76.4009 673.657H87.9209M76.4009 673.657V685.058M64.8809 673.657V685.058M87.9209 673.657V685.058M99.4309 673.657H87.9109M99.4309 673.657H110.951M99.4309 673.657V685.058M87.9109 673.657V685.058M110.951 673.657V685.058M122.461 673.657H110.941M122.461 673.657H133.981M122.461 673.657V685.058M110.941 673.657V685.058M133.981 673.657H145.501M133.981 673.657V685.058M145.501 673.657V685.058M157.011 673.657H145.491M157.011 673.657H168.531M157.011 673.657V685.058M145.491 673.657V685.058M168.531 673.657V685.058M180.041 673.657H168.521M180.041 673.657H191.561M180.041 673.657V685.058M168.521 673.657V685.058M191.561 673.657H203.081M191.561 673.657V685.058M203.081 673.657V685.058M214.591 673.657H203.071M214.591 673.657H226.111M214.591 673.657V685.058M203.071 673.657V685.058M226.111 673.657V685.058M237.621 673.657H226.101M237.621 673.657H249.141M237.621 673.657V685.058M226.101 673.657V685.058M249.141 673.657V685.058M260.651 673.657H249.131M260.651 673.657H272.171M260.651 673.657V685.058M249.131 673.657V685.058M272.171 673.657H283.691M272.171 673.657V685.058M283.691 673.657V685.058M295.201 673.657H283.681M295.201 673.657H306.721M295.201 673.657V685.058M283.681 673.657V685.058M306.721 673.657V685.058M318.231 673.657H306.711M318.231 673.657H329.751M318.231 673.657V685.058M306.711 673.657V685.058M329.751 673.657V685.058M341.261 673.657H329.741M341.261 673.657H352.781M341.261 673.657V685.058M329.741 673.657V685.058M352.781 673.657H364.301M352.781 673.657V685.058M364.301 673.657V685.058M375.811 673.657H364.291M375.811 673.657H387.331M375.811 673.657V685.058M364.291 673.657V685.058M387.331 673.657V685.058M398.841 673.657H387.321M398.841 673.657H410.361M398.841 673.657V685.058M387.321 673.657V685.058M410.361 673.657V685.058M421.871 673.657H410.351M421.871 673.657H433.391M421.871 673.657V685.058M410.351 673.657V685.058M433.391 673.657H444.911M433.391 673.657V685.058M444.911 673.657V685.058M456.421 673.657H444.901M456.421 673.657H467.941M456.421 673.657V685.058M444.901 673.657V685.058M467.941 673.657V685.058M479.451 673.657H467.931M479.451 673.657H490.971M479.451 673.657V685.058M467.931 673.657V685.058M490.971 673.657V685.058M502.481 673.657H490.961M502.481 673.657H514.001M502.481 673.657V685.058M490.961 673.657V685.058M514.001 673.657H525.521M514.001 673.657V685.058M525.521 673.657V685.058M537.031 673.657H525.511M537.031 673.657H548.551M537.031 673.657V685.058M525.511 673.657V685.058M548.551 673.657V685.058M560.061 673.657H548.541M560.061 673.657H571.581M560.061 673.657V685.058M548.541 673.657V685.058M571.581 673.657V685.058M583.091 673.657H571.571M583.091 673.657H594.611M583.091 673.657V685.058M571.571 673.657V685.058M594.611 673.657H606.131M594.611 673.657V685.058M606.131 673.657V685.058M617.641 673.657H606.121M617.641 673.657V685.058M606.121 673.657V685.058M76.4009 685.058H64.8809M76.4009 685.058H87.9209M76.4009 685.058V696.459M64.8809 685.058V696.459M87.9209 685.058V696.459M99.4309 685.058H87.9109M99.4309 685.058H110.951M99.4309 685.058V696.459M87.9109 685.058V696.459M110.951 685.058V696.459M122.461 685.058H110.941M122.461 685.058H133.981M122.461 685.058V696.459M110.941 685.058V696.459M133.981 685.058H145.501M133.981 685.058V696.459M145.501 685.058V696.459M157.011 685.058H145.491M157.011 685.058H168.531M157.011 685.058V696.459M145.491 685.058V696.459M168.531 685.058V696.459M180.041 685.058H168.521M180.041 685.058H191.561M180.041 685.058V696.459M168.521 685.058V696.459M191.561 685.058H203.081M191.561 685.058V696.459M203.081 685.058V696.459M214.591 685.058H203.071M214.591 685.058H226.111M214.591 685.058V696.459M203.071 685.058V696.459M226.111 685.058V696.459M237.621 685.058H226.101M237.621 685.058H249.141M237.621 685.058V696.459M226.101 685.058V696.459M249.141 685.058V696.459M260.651 685.058H249.131M260.651 685.058H272.171M260.651 685.058V696.459M249.131 685.058V696.459M272.171 685.058H283.691M272.171 685.058V696.459M283.691 685.058V696.459M295.201 685.058H283.681M295.201 685.058H306.721M295.201 685.058V696.459M283.681 685.058V696.459M306.721 685.058V696.459M318.231 685.058H306.711M318.231 685.058H329.751M318.231 685.058V696.459M306.711 685.058V696.459M329.751 685.058V696.459M341.261 685.058H329.741M341.261 685.058H352.781M341.261 685.058V696.459M329.741 685.058V696.459M352.781 685.058H364.301M352.781 685.058V696.459M364.301 685.058V696.459M375.811 685.058H364.291M375.811 685.058H387.331M375.811 685.058V696.459M364.291 685.058V696.459M387.331 685.058V696.459M398.841 685.058H387.321M398.841 685.058H410.361M398.841 685.058V696.459M387.321 685.058V696.459M410.361 685.058V696.459M421.871 685.058H410.351M421.871 685.058H433.391M421.871 685.058V696.459M410.351 685.058V696.459M433.391 685.058H444.911M433.391 685.058V696.459M444.911 685.058V696.459M456.421 685.058H444.901M456.421 685.058H467.941M456.421 685.058V696.459M444.901 685.058V696.459M467.941 685.058V696.459M479.451 685.058H467.931M479.451 685.058H490.971M479.451 685.058V696.459M467.931 685.058V696.459M490.971 685.058V696.459M502.481 685.058H490.961M502.481 685.058H514.001M502.481 685.058V696.459M490.961 685.058V696.459M514.001 685.058H525.521M514.001 685.058V696.459M525.521 685.058V696.459M537.031 685.058H525.511M537.031 685.058H548.551M537.031 685.058V696.459M525.511 685.058V696.459M548.551 685.058V696.459M560.061 685.058H548.541M560.061 685.058H571.581M560.061 685.058V696.459M548.541 685.058V696.459M571.581 685.058V696.459M583.091 685.058H571.571M583.091 685.058H594.611M583.091 685.058V696.459M571.571 685.058V696.459M594.611 685.058H606.131M594.611 685.058V696.459M606.131 685.058V696.459M617.641 685.058H606.121M617.641 685.058V696.459M606.121 685.058V696.459M76.4009 696.459H64.8809M76.4009 696.459H87.9209M76.4009 696.459V707.86M64.8809 696.459V707.86H76.4009M87.9209 696.459V707.86H76.4009M99.4309 696.459H87.9109M99.4309 696.459H110.951M99.4309 696.459V707.86M87.9109 696.459V707.86H99.4309M110.951 696.459V707.86H99.4309M122.461 696.459H110.941M122.461 696.459H133.981M122.461 696.459V707.86M110.941 696.459V707.86H122.461M133.981 696.459H145.501M133.981 696.459V707.86M145.501 696.459V707.86H133.981M157.011 696.459H145.491M157.011 696.459H168.531M157.011 696.459V707.86M145.491 696.459V707.86H157.011M168.531 696.459V707.86H157.011M180.041 696.459H168.521M180.041 696.459H191.561M180.041 696.459V707.86M168.521 696.459V707.86H180.041M191.561 696.459H203.081M191.561 696.459V707.86M203.081 696.459V707.86H191.561M214.591 696.459H203.071M214.591 696.459H226.111M214.591 696.459V707.86M203.071 696.459V707.86H214.591M226.111 696.459V707.86H214.591M237.621 696.459H226.101M237.621 696.459H249.141M237.621 696.459V707.86M226.101 696.459V707.86H237.621M249.141 696.459V707.86H237.621M260.651 696.459H249.131M260.651 696.459H272.171M260.651 696.459V707.86M249.131 696.459V707.86H260.651M272.171 696.459H283.691M272.171 696.459V707.86M283.691 696.459V707.86H272.171M295.201 696.459H283.681M295.201 696.459H306.721M295.201 696.459V707.86M283.681 696.459V707.86H295.201M306.721 696.459V707.86H295.201M318.231 696.459H306.711M318.231 696.459H329.751M318.231 696.459V707.86M306.711 696.459V707.86H318.231M329.751 696.459V707.86H318.231M341.261 696.459H329.741M341.261 696.459H352.781M341.261 696.459V707.86M329.741 696.459V707.86H341.261M352.781 696.459H364.301M352.781 696.459V707.86M364.301 696.459V707.86H352.781M375.811 696.459H364.291M375.811 696.459H387.331M375.811 696.459V707.86M364.291 696.459V707.86H375.811M387.331 696.459V707.86H375.811M398.841 696.459H387.321M398.841 696.459H410.361M398.841 696.459V707.86M387.321 696.459V707.86H398.841M410.361 696.459V707.86H398.841M421.871 696.459H410.351M421.871 696.459H433.391M421.871 696.459V707.86M410.351 696.459V707.86H421.871M433.391 696.459H444.911M433.391 696.459V707.86M444.911 696.459V707.86H433.391M456.421 696.459H444.901M456.421 696.459H467.941M456.421 696.459V707.86M444.901 696.459V707.86H456.421M467.941 696.459V707.86H456.421M479.451 696.459H467.931M479.451 696.459H490.971M479.451 696.459V707.86M467.931 696.459V707.86H479.451M490.971 696.459V707.86H479.451M502.481 696.459H490.961M502.481 696.459H514.001M502.481 696.459V707.86M490.961 696.459V707.86H502.481M514.001 696.459H525.521M514.001 696.459V707.86M525.521 696.459V707.86H514.001M537.031 696.459H525.511M537.031 696.459H548.551M537.031 696.459V707.86M525.511 696.459V707.86H537.031M548.551 696.459V707.86H537.031M560.061 696.459H548.541M560.061 696.459H571.581M560.061 696.459V707.86M548.541 696.459V707.86H560.061M571.581 696.459V707.86H560.061M583.091 696.459H571.571M583.091 696.459H594.611M583.091 696.459V707.86M571.571 696.459V707.86H583.091M594.611 696.459H606.131M594.611 696.459V707.86M606.131 696.459V707.86H594.611M617.641 696.459H606.121M617.641 696.459V707.86H606.121V696.459M122.461 707.86H133.981M180.041 707.86H191.561M260.651 707.86H272.171M341.261 707.86H352.781M421.871 707.86H433.391M502.481 707.86H514.001M583.091 707.86H594.611M76.4009 707.85H64.8809V719.251M76.4009 707.85V719.251M76.4009 707.85H87.9209V719.251M76.4009 719.251H64.8809M76.4009 719.251H87.9209M76.4009 719.251V730.652M64.8809 719.251V730.652M87.9209 719.251V730.652M99.4309 707.85H87.9109V719.251M99.4309 707.85V719.251M99.4309 707.85H110.951V719.251M99.4309 719.251H87.9109M99.4309 719.251H110.951M99.4309 719.251V730.652M87.9109 719.251V730.652M110.951 719.251V730.652M122.461 707.85H110.941V719.251M122.461 707.85V719.251M122.461 707.85H133.981M122.461 719.251H110.941M122.461 719.251H133.981M122.461 719.251V730.652M110.941 719.251V730.652M133.981 707.85V719.251M133.981 707.85H145.501V719.251M133.981 719.251H145.501M133.981 719.251V730.652M145.501 719.251V730.652M157.011 707.85H145.491V719.251M157.011 707.85V719.251M157.011 707.85H168.531V719.251M157.011 719.251H145.491M157.011 719.251H168.531M157.011 719.251V730.652M145.491 719.251V730.652M168.531 719.251V730.652M180.041 707.85H168.521V719.251M180.041 707.85V719.251M180.041 707.85H191.561M180.041 719.251H168.521M180.041 719.251H191.561M180.041 719.251V730.652M168.521 719.251V730.652M191.561 707.85V719.251M191.561 707.85H203.081V719.251M191.561 719.251H203.081M191.561 719.251V730.652M203.081 719.251V730.652M214.591 707.85H203.071V719.251M214.591 707.85V719.251M214.591 707.85H226.111V719.251M214.591 719.251H203.071M214.591 719.251H226.111M214.591 719.251V730.652M203.071 719.251V730.652M226.111 719.251V730.652M237.621 707.85H226.101V719.251M237.621 707.85V719.251M237.621 707.85H249.141V719.251M237.621 719.251H226.101M237.621 719.251H249.141M237.621 719.251V730.652M226.101 719.251V730.652M249.141 719.251V730.652M260.651 707.85H249.131V719.251M260.651 707.85V719.251M260.651 707.85H272.171M260.651 719.251H249.131M260.651 719.251H272.171M260.651 719.251V730.652M249.131 719.251V730.652M272.171 707.85V719.251M272.171 707.85H283.691V719.251M272.171 719.251H283.691M272.171 719.251V730.652M283.691 719.251V730.652M295.201 707.85H283.681V719.251M295.201 707.85V719.251M295.201 707.85H306.721V719.251M295.201 719.251H283.681M295.201 719.251H306.721M295.201 719.251V730.652M283.681 719.251V730.652M306.721 719.251V730.652M318.231 707.85H306.711V719.251M318.231 707.85V719.251M318.231 707.85H329.751V719.251M318.231 719.251H306.711M318.231 719.251H329.751M318.231 719.251V730.652M306.711 719.251V730.652M329.751 719.251V730.652M341.261 707.85H329.741V719.251M341.261 707.85V719.251M341.261 707.85H352.781M341.261 719.251H329.741M341.261 719.251H352.781M341.261 719.251V730.652M329.741 719.251V730.652M352.781 707.85V719.251M352.781 707.85H364.301V719.251M352.781 719.251H364.301M352.781 719.251V730.652M364.301 719.251V730.652M375.811 707.85H364.291V719.251M375.811 707.85V719.251M375.811 707.85H387.331V719.251M375.811 719.251H364.291M375.811 719.251H387.331M375.811 719.251V730.652M364.291 719.251V730.652M387.331 719.251V730.652M398.841 707.85H387.321V719.251M398.841 707.85V719.251M398.841 707.85H410.361V719.251M398.841 719.251H387.321M398.841 719.251H410.361M398.841 719.251V730.652M387.321 719.251V730.652M410.361 719.251V730.652M421.871 707.85H410.351V719.251M421.871 707.85V719.251M421.871 707.85H433.391M421.871 719.251H410.351M421.871 719.251H433.391M421.871 719.251V730.652M410.351 719.251V730.652M433.391 707.85V719.251M433.391 707.85H444.911V719.251M433.391 719.251H444.911M433.391 719.251V730.652M444.911 719.251V730.652M456.421 707.85H444.901V719.251M456.421 707.85V719.251M456.421 707.85H467.941V719.251M456.421 719.251H444.901M456.421 719.251H467.941M456.421 719.251V730.652M444.901 719.251V730.652M467.941 719.251V730.652M479.451 707.85H467.931V719.251M479.451 707.85V719.251M479.451 707.85H490.971V719.251M479.451 719.251H467.931M479.451 719.251H490.971M479.451 719.251V730.652M467.931 719.251V730.652M490.971 719.251V730.652M502.481 707.85H490.961V719.251M502.481 707.85V719.251M502.481 707.85H514.001M502.481 719.251H490.961M502.481 719.251H514.001M502.481 719.251V730.652M490.961 719.251V730.652M514.001 707.85V719.251M514.001 707.85H525.521V719.251M514.001 719.251H525.521M514.001 719.251V730.652M525.521 719.251V730.652M537.031 707.85H525.511V719.251M537.031 707.85V719.251M537.031 707.85H548.551V719.251M537.031 719.251H525.511M537.031 719.251H548.551M537.031 719.251V730.652M525.511 719.251V730.652M548.551 719.251V730.652M560.061 707.85H548.541V719.251M560.061 707.85V719.251M560.061 707.85H571.581V719.251M560.061 719.251H548.541M560.061 719.251H571.581M560.061 719.251V730.652M548.541 719.251V730.652M571.581 719.251V730.652M583.091 707.85H571.571V719.251M583.091 707.85V719.251M583.091 707.85H594.611M583.091 719.251H571.571M583.091 719.251H594.611M583.091 719.251V730.652M571.571 719.251V730.652M594.611 707.85V719.251M594.611 707.85H606.131V719.251M594.611 719.251H606.131M594.611 719.251V730.652M606.131 719.251V730.652M617.641 719.251V707.85H606.121V719.251M617.641 719.251H606.121M617.641 719.251V730.652M606.121 719.251V730.652M76.4009 730.652H64.8809M76.4009 730.652H87.9209M76.4009 730.652V742.053M64.8809 730.652V742.053M87.9209 730.652V742.053M99.4309 730.652H87.9109M99.4309 730.652H110.951M99.4309 730.652V742.053M87.9109 730.652V742.053M110.951 730.652V742.053M122.461 730.652H110.941M122.461 730.652H133.981M122.461 730.652V742.053M110.941 730.652V742.053M133.981 730.652H145.501M133.981 730.652V742.053M145.501 730.652V742.053M157.011 730.652H145.491M157.011 730.652H168.531M157.011 730.652V742.053M145.491 730.652V742.053M168.531 730.652V742.053M180.041 730.652H168.521M180.041 730.652H191.561M180.041 730.652V742.053M168.521 730.652V742.053M191.561 730.652H203.081M191.561 730.652V742.053M203.081 730.652V742.053M214.591 730.652H203.071M214.591 730.652H226.111M214.591 730.652V742.053M203.071 730.652V742.053M226.111 730.652V742.053M237.621 730.652H226.101M237.621 730.652H249.141M237.621 730.652V742.053M226.101 730.652V742.053M249.141 730.652V742.053M260.651 730.652H249.131M260.651 730.652H272.171M260.651 730.652V742.053M249.131 730.652V742.053M272.171 730.652H283.691M272.171 730.652V742.053M283.691 730.652V742.053M295.201 730.652H283.681M295.201 730.652H306.721M295.201 730.652V742.053M283.681 730.652V742.053M306.721 730.652V742.053M318.231 730.652H306.711M318.231 730.652H329.751M318.231 730.652V742.053M306.711 730.652V742.053M329.751 730.652V742.053M341.261 730.652H329.741M341.261 730.652H352.781M341.261 730.652V742.053M329.741 730.652V742.053M352.781 730.652H364.301M352.781 730.652V742.053M364.301 730.652V742.053M375.811 730.652H364.291M375.811 730.652H387.331M375.811 730.652V742.053M364.291 730.652V742.053M387.331 730.652V742.053M398.841 730.652H387.321M398.841 730.652H410.361M398.841 730.652V742.053M387.321 730.652V742.053M410.361 730.652V742.053M421.871 730.652H410.351M421.871 730.652H433.391M421.871 730.652V742.053M410.351 730.652V742.053M433.391 730.652H444.911M433.391 730.652V742.053M444.911 730.652V742.053M456.421 730.652H444.901M456.421 730.652H467.941M456.421 730.652V742.053M444.901 730.652V742.053M467.941 730.652V742.053M479.451 730.652H467.931M479.451 730.652H490.971M479.451 730.652V742.053M467.931 730.652V742.053M490.971 730.652V742.053M502.481 730.652H490.961M502.481 730.652H514.001M502.481 730.652V742.053M490.961 730.652V742.053M514.001 730.652H525.521M514.001 730.652V742.053M525.521 730.652V742.053M537.031 730.652H525.511M537.031 730.652H548.551M537.031 730.652V742.053M525.511 730.652V742.053M548.551 730.652V742.053M560.061 730.652H548.541M560.061 730.652H571.581M560.061 730.652V742.053M548.541 730.652V742.053M571.581 730.652V742.053M583.091 730.652H571.571M583.091 730.652H594.611M583.091 730.652V742.053M571.571 730.652V742.053M594.611 730.652H606.131M594.611 730.652V742.053M606.131 730.652V742.053M617.641 730.652H606.121M617.641 730.652V742.053M606.121 730.652V742.053M76.4009 742.053H64.8809M76.4009 742.053H87.9209M76.4009 742.053V753.454M64.8809 742.053V753.454M87.9209 742.053V753.454M99.4309 742.053H87.9109M99.4309 742.053H110.951M99.4309 742.053V753.454M87.9109 742.053V753.454M110.951 742.053V753.454M122.461 742.053H110.941M122.461 742.053H133.981M122.461 742.053V753.454M110.941 742.053V753.454M133.981 742.053H145.501M133.981 742.053V753.454M145.501 742.053V753.454M157.011 742.053H145.491M157.011 742.053H168.531M157.011 742.053V753.454M145.491 742.053V753.454M168.531 742.053V753.454M180.041 742.053H168.521M180.041 742.053H191.561M180.041 742.053V753.454M168.521 742.053V753.454M191.561 742.053H203.081M191.561 742.053V753.454M203.081 742.053V753.454M214.591 742.053H203.071M214.591 742.053H226.111M214.591 742.053V753.454M203.071 742.053V753.454M226.111 742.053V753.454M237.621 742.053H226.101M237.621 742.053H249.141M237.621 742.053V753.454M226.101 742.053V753.454M249.141 742.053V753.454M260.651 742.053H249.131M260.651 742.053H272.171M260.651 742.053V753.454M249.131 742.053V753.454M272.171 742.053H283.691M272.171 742.053V753.454M283.691 742.053V753.454M295.201 742.053H283.681M295.201 742.053H306.721M295.201 742.053V753.454M283.681 742.053V753.454M306.721 742.053V753.454M318.231 742.053H306.711M318.231 742.053H329.751M318.231 742.053V753.454M306.711 742.053V753.454M329.751 742.053V753.454M341.261 742.053H329.741M341.261 742.053H352.781M341.261 742.053V753.454M329.741 742.053V753.454M352.781 742.053H364.301M352.781 742.053V753.454M364.301 742.053V753.454M375.811 742.053H364.291M375.811 742.053H387.331M375.811 742.053V753.454M364.291 742.053V753.454M387.331 742.053V753.454M398.841 742.053H387.321M398.841 742.053H410.361M398.841 742.053V753.454M387.321 742.053V753.454M410.361 742.053V753.454M421.871 742.053H410.351M421.871 742.053H433.391M421.871 742.053V753.454M410.351 742.053V753.454M433.391 742.053H444.911M433.391 742.053V753.454M444.911 742.053V753.454M456.421 742.053H444.901M456.421 742.053H467.941M456.421 742.053V753.454M444.901 742.053V753.454M467.941 742.053V753.454M479.451 742.053H467.931M479.451 742.053H490.971M479.451 742.053V753.454M467.931 742.053V753.454M490.971 742.053V753.454M502.481 742.053H490.961M502.481 742.053H514.001M502.481 742.053V753.454M490.961 742.053V753.454M514.001 742.053H525.521M514.001 742.053V753.454M525.521 742.053V753.454M537.031 742.053H525.511M537.031 742.053H548.551M537.031 742.053V753.454M525.511 742.053V753.454M548.551 742.053V753.454M560.061 742.053H548.541M560.061 742.053H571.581M560.061 742.053V753.454M548.541 742.053V753.454M571.581 742.053V753.454M583.091 742.053H571.571M583.091 742.053H594.611M583.091 742.053V753.454M571.571 742.053V753.454M594.611 742.053H606.131M594.611 742.053V753.454M606.131 742.053V753.454M617.641 742.053H606.121M617.641 742.053V753.454M606.121 742.053V753.454M76.4009 753.454H64.8809M76.4009 753.454H87.9209M76.4009 753.454V764.855M64.8809 753.454V764.855M87.9209 753.454V764.855M99.4309 753.454H87.9109M99.4309 753.454H110.951M99.4309 753.454V764.855M87.9109 753.454V764.855M110.951 753.454V764.855M122.461 753.454H110.941M122.461 753.454H133.981M122.461 753.454V764.855M110.941 753.454V764.855M133.981 753.454H145.501M133.981 753.454V764.855M145.501 753.454V764.855M157.011 753.454H145.491M157.011 753.454H168.531M157.011 753.454V764.855M145.491 753.454V764.855M168.531 753.454V764.855M180.041 753.454H168.521M180.041 753.454H191.561M180.041 753.454V764.855M168.521 753.454V764.855M191.561 753.454H203.081M191.561 753.454V764.855M203.081 753.454V764.855M214.591 753.454H203.071M214.591 753.454H226.111M214.591 753.454V764.855M203.071 753.454V764.855M226.111 753.454V764.855M237.621 753.454H226.101M237.621 753.454H249.141M237.621 753.454V764.855M226.101 753.454V764.855M249.141 753.454V764.855M260.651 753.454H249.131M260.651 753.454H272.171M260.651 753.454V764.855M249.131 753.454V764.855M272.171 753.454H283.691M272.171 753.454V764.855M283.691 753.454V764.855M295.201 753.454H283.681M295.201 753.454H306.721M295.201 753.454V764.855M283.681 753.454V764.855M306.721 753.454V764.855M318.231 753.454H306.711M318.231 753.454H329.751M318.231 753.454V764.855M306.711 753.454V764.855M329.751 753.454V764.855M341.261 753.454H329.741M341.261 753.454H352.781M341.261 753.454V764.855M329.741 753.454V764.855M352.781 753.454H364.301M352.781 753.454V764.855M364.301 753.454V764.855M375.811 753.454H364.291M375.811 753.454H387.331M375.811 753.454V764.855M364.291 753.454V764.855M387.331 753.454V764.855M398.841 753.454H387.321M398.841 753.454H410.361M398.841 753.454V764.855M387.321 753.454V764.855M410.361 753.454V764.855M421.871 753.454H410.351M421.871 753.454H433.391M421.871 753.454V764.855M410.351 753.454V764.855M433.391 753.454H444.911M433.391 753.454V764.855M444.911 753.454V764.855M456.421 753.454H444.901M456.421 753.454H467.941M456.421 753.454V764.855M444.901 753.454V764.855M467.941 753.454V764.855M479.451 753.454H467.931M479.451 753.454H490.971M479.451 753.454V764.855M467.931 753.454V764.855M490.971 753.454V764.855M502.481 753.454H490.961M502.481 753.454H514.001M502.481 753.454V764.855M490.961 753.454V764.855M514.001 753.454H525.521M514.001 753.454V764.855M525.521 753.454V764.855M537.031 753.454H525.511M537.031 753.454H548.551M537.031 753.454V764.855M525.511 753.454V764.855M548.551 753.454V764.855M560.061 753.454H548.541M560.061 753.454H571.581M560.061 753.454V764.855M548.541 753.454V764.855M571.581 753.454V764.855M583.091 753.454H571.571M583.091 753.454H594.611M583.091 753.454V764.855M571.571 753.454V764.855M594.611 753.454H606.131M594.611 753.454V764.855M606.131 753.454V764.855M617.641 753.454H606.121M617.641 753.454V764.855M606.121 753.454V764.855M76.4009 764.855H64.8809M76.4009 764.855H87.9209M76.4009 764.855V776.257M64.8809 764.855V776.257M87.9209 764.855V776.257M99.4309 764.855H87.9109M99.4309 764.855H110.951M99.4309 764.855V776.257M87.9109 764.855V776.257M110.951 764.855V776.257M122.461 764.855H110.941M122.461 764.855H133.981M122.461 764.855V776.257M110.941 764.855V776.257M133.981 764.855H145.501M133.981 764.855V776.257M145.501 764.855V776.257M157.011 764.855H145.491M157.011 764.855H168.531M157.011 764.855V776.257M145.491 764.855V776.257M168.531 764.855V776.257M180.041 764.855H168.521M180.041 764.855H191.561M180.041 764.855V776.257M168.521 764.855V776.257M191.561 764.855H203.081M191.561 764.855V776.257M203.081 764.855V776.257M214.591 764.855H203.071M214.591 764.855H226.111M214.591 764.855V776.257M203.071 764.855V776.257M226.111 764.855V776.257M237.621 764.855H226.101M237.621 764.855H249.141M237.621 764.855V776.257M226.101 764.855V776.257M249.141 764.855V776.257M260.651 764.855H249.131M260.651 764.855H272.171M260.651 764.855V776.257M249.131 764.855V776.257M272.171 764.855H283.691M272.171 764.855V776.257M283.691 764.855V776.257M295.201 764.855H283.681M295.201 764.855H306.721M295.201 764.855V776.257M283.681 764.855V776.257M306.721 764.855V776.257M318.231 764.855H306.711M318.231 764.855H329.751M318.231 764.855V776.257M306.711 764.855V776.257M329.751 764.855V776.257M341.261 764.855H329.741M341.261 764.855H352.781M341.261 764.855V776.257M329.741 764.855V776.257M352.781 764.855H364.301M352.781 764.855V776.257M364.301 764.855V776.257M375.811 764.855H364.291M375.811 764.855H387.331M375.811 764.855V776.257M364.291 764.855V776.257M387.331 764.855V776.257M398.841 764.855H387.321M398.841 764.855H410.361M398.841 764.855V776.257M387.321 764.855V776.257M410.361 764.855V776.257M421.871 764.855H410.351M421.871 764.855H433.391M421.871 764.855V776.257M410.351 764.855V776.257M433.391 764.855H444.911M433.391 764.855V776.257M444.911 764.855V776.257M456.421 764.855H444.901M456.421 764.855H467.941M456.421 764.855V776.257M444.901 764.855V776.257M467.941 764.855V776.257M479.451 764.855H467.931M479.451 764.855H490.971M479.451 764.855V776.257M467.931 764.855V776.257M490.971 764.855V776.257M502.481 764.855H490.961M502.481 764.855H514.001M502.481 764.855V776.257M490.961 764.855V776.257M514.001 764.855H525.521M514.001 764.855V776.257M525.521 764.855V776.257M537.031 764.855H525.511M537.031 764.855H548.551M537.031 764.855V776.257M525.511 764.855V776.257M548.551 764.855V776.257M560.061 764.855H548.541M560.061 764.855H571.581M560.061 764.855V776.257M548.541 764.855V776.257M571.581 764.855V776.257M583.091 764.855H571.571M583.091 764.855H594.611M583.091 764.855V776.257M571.571 764.855V776.257M594.611 764.855H606.131M594.611 764.855V776.257M606.131 764.855V776.257M617.641 764.855H606.121M617.641 764.855V776.257M606.121 764.855V776.257M76.4009 776.257H64.8809M76.4009 776.257H87.9209M76.4009 776.257V787.658M64.8809 776.257V787.658H76.4009M87.9209 776.257V787.658H76.4009M99.4309 776.257H87.9109M99.4309 776.257H110.951M99.4309 776.257V787.658M87.9109 776.257V787.658H99.4309M110.951 776.257V787.658H99.4309M122.461 776.257H110.941M122.461 776.257H133.981M122.461 776.257V787.658M110.941 776.257V787.658H122.461M133.981 776.257H145.501M133.981 776.257V787.658M145.501 776.257V787.658H133.981M157.011 776.257H145.491M157.011 776.257H168.531M157.011 776.257V787.658M145.491 776.257V787.658H157.011M168.531 776.257V787.658H157.011M180.041 776.257H168.521M180.041 776.257H191.561M180.041 776.257V787.658M168.521 776.257V787.658H180.041M191.561 776.257H203.081M191.561 776.257V787.658M203.081 776.257V787.658H191.561M214.591 776.257H203.071M214.591 776.257H226.111M214.591 776.257V787.658M203.071 776.257V787.658H214.591M226.111 776.257V787.658H214.591M237.621 776.257H226.101M237.621 776.257H249.141M237.621 776.257V787.658M226.101 776.257V787.658H237.621M249.141 776.257V787.658H237.621M260.651 776.257H249.131M260.651 776.257H272.171M260.651 776.257V787.658M249.131 776.257V787.658H260.651M272.171 776.257H283.691M272.171 776.257V787.658M283.691 776.257V787.658H272.171M295.201 776.257H283.681M295.201 776.257H306.721M295.201 776.257V787.658M283.681 776.257V787.658H295.201M306.721 776.257V787.658H295.201M318.231 776.257H306.711M318.231 776.257H329.751M318.231 776.257V787.658M306.711 776.257V787.658H318.231M329.751 776.257V787.658H318.231M341.261 776.257H329.741M341.261 776.257H352.781M341.261 776.257V787.658M329.741 776.257V787.658H341.261M352.781 776.257H364.301M352.781 776.257V787.658M364.301 776.257V787.658H352.781M375.811 776.257H364.291M375.811 776.257H387.331M375.811 776.257V787.658M364.291 776.257V787.658H375.811M387.331 776.257V787.658H375.811M398.841 776.257H387.321M398.841 776.257H410.361M398.841 776.257V787.658M387.321 776.257V787.658H398.841M410.361 776.257V787.658H398.841M421.871 776.257H410.351M421.871 776.257H433.391M421.871 776.257V787.658M410.351 776.257V787.658H421.871M433.391 776.257H444.911M433.391 776.257V787.658M444.911 776.257V787.658H433.391M456.421 776.257H444.901M456.421 776.257H467.941M456.421 776.257V787.658M444.901 776.257V787.658H456.421M467.941 776.257V787.658H456.421M479.451 776.257H467.931M479.451 776.257H490.971M479.451 776.257V787.658M467.931 776.257V787.658H479.451M490.971 776.257V787.658H479.451M502.481 776.257H490.961M502.481 776.257H514.001M502.481 776.257V787.658M490.961 776.257V787.658H502.481M514.001 776.257H525.521M514.001 776.257V787.658M525.521 776.257V787.658H514.001M537.031 776.257H525.511M537.031 776.257H548.551M537.031 776.257V787.658M525.511 776.257V787.658H537.031M548.551 776.257V787.658H537.031M560.061 776.257H548.541M560.061 776.257H571.581M560.061 776.257V787.658M548.541 776.257V787.658H560.061M571.581 776.257V787.658H560.061M583.091 776.257H571.571M583.091 776.257H594.611M583.091 776.257V787.658M571.571 776.257V787.658H583.091M594.611 776.257H606.131M594.611 776.257V787.658M606.131 776.257V787.658H594.611M617.641 776.257H606.121M617.641 776.257V787.658H606.121V776.257M122.461 787.658H133.981M180.041 787.658H191.561M260.651 787.658H272.171M341.261 787.658H352.781M421.871 787.658H433.391M502.481 787.658H514.001M583.091 787.658H594.611M76.4009 787.648H64.8809V799.049M76.4009 787.648V799.049M76.4009 787.648H87.9209V799.049M76.4009 799.049H64.8809M76.4009 799.049H87.9209M76.4009 799.049V810.45M64.8809 799.049V810.45M87.9209 799.049V810.45M99.4309 787.648H87.9109V799.049M99.4309 787.648V799.049M99.4309 787.648H110.951V799.049M99.4309 799.049H87.9109M99.4309 799.049H110.951M99.4309 799.049V810.45M87.9109 799.049V810.45M110.951 799.049V810.45M122.461 787.648H110.941V799.049M122.461 787.648V799.049M122.461 787.648H133.981M122.461 799.049H110.941M122.461 799.049H133.981M122.461 799.049V810.45M110.941 799.049V810.45M133.981 787.648V799.049M133.981 787.648H145.501V799.049M133.981 799.049H145.501M133.981 799.049V810.45M145.501 799.049V810.45M157.011 787.648H145.491V799.049M157.011 787.648V799.049M157.011 787.648H168.531V799.049M157.011 799.049H145.491M157.011 799.049H168.531M157.011 799.049V810.45M145.491 799.049V810.45M168.531 799.049V810.45M180.041 787.648H168.521V799.049M180.041 787.648V799.049M180.041 787.648H191.561M180.041 799.049H168.521M180.041 799.049H191.561M180.041 799.049V810.45M168.521 799.049V810.45M191.561 787.648V799.049M191.561 787.648H203.081V799.049M191.561 799.049H203.081M191.561 799.049V810.45M203.081 799.049V810.45M214.591 787.648H203.071V799.049M214.591 787.648V799.049M214.591 787.648H226.111V799.049M214.591 799.049H203.071M214.591 799.049H226.111M214.591 799.049V810.45M203.071 799.049V810.45M226.111 799.049V810.45M237.621 787.648H226.101V799.049M237.621 787.648V799.049M237.621 787.648H249.141V799.049M237.621 799.049H226.101M237.621 799.049H249.141M237.621 799.049V810.45M226.101 799.049V810.45M249.141 799.049V810.45M260.651 787.648H249.131V799.049M260.651 787.648V799.049M260.651 787.648H272.171M260.651 799.049H249.131M260.651 799.049H272.171M260.651 799.049V810.45M249.131 799.049V810.45M272.171 787.648V799.049M272.171 787.648H283.691V799.049M272.171 799.049H283.691M272.171 799.049V810.45M283.691 799.049V810.45M295.201 787.648H283.681V799.049M295.201 787.648V799.049M295.201 787.648H306.721V799.049M295.201 799.049H283.681M295.201 799.049H306.721M295.201 799.049V810.45M283.681 799.049V810.45M306.721 799.049V810.45M318.231 787.648H306.711V799.049M318.231 787.648V799.049M318.231 787.648H329.751V799.049M318.231 799.049H306.711M318.231 799.049H329.751M318.231 799.049V810.45M306.711 799.049V810.45M329.751 799.049V810.45M341.261 787.648H329.741V799.049M341.261 787.648V799.049M341.261 787.648H352.781M341.261 799.049H329.741M341.261 799.049H352.781M341.261 799.049V810.45M329.741 799.049V810.45M352.781 787.648V799.049M352.781 787.648H364.301V799.049M352.781 799.049H364.301M352.781 799.049V810.45M364.301 799.049V810.45M375.811 787.648H364.291V799.049M375.811 787.648V799.049M375.811 787.648H387.331V799.049M375.811 799.049H364.291M375.811 799.049H387.331M375.811 799.049V810.45M364.291 799.049V810.45M387.331 799.049V810.45M398.841 787.648H387.321V799.049M398.841 787.648V799.049M398.841 787.648H410.361V799.049M398.841 799.049H387.321M398.841 799.049H410.361M398.841 799.049V810.45M387.321 799.049V810.45M410.361 799.049V810.45M421.871 787.648H410.351V799.049M421.871 787.648V799.049M421.871 787.648H433.391M421.871 799.049H410.351M421.871 799.049H433.391M421.871 799.049V810.45M410.351 799.049V810.45M433.391 787.648V799.049M433.391 787.648H444.911V799.049M433.391 799.049H444.911M433.391 799.049V810.45M444.911 799.049V810.45M456.421 787.648H444.901V799.049M456.421 787.648V799.049M456.421 787.648H467.941V799.049M456.421 799.049H444.901M456.421 799.049H467.941M456.421 799.049V810.45M444.901 799.049V810.45M467.941 799.049V810.45M479.451 787.648H467.931V799.049M479.451 787.648V799.049M479.451 787.648H490.971V799.049M479.451 799.049H467.931M479.451 799.049H490.971M479.451 799.049V810.45M467.931 799.049V810.45M490.971 799.049V810.45M502.481 787.648H490.961V799.049M502.481 787.648V799.049M502.481 787.648H514.001M502.481 799.049H490.961M502.481 799.049H514.001M502.481 799.049V810.45M490.961 799.049V810.45M514.001 787.648V799.049M514.001 787.648H525.521V799.049M514.001 799.049H525.521M514.001 799.049V810.45M525.521 799.049V810.45M537.031 787.648H525.511V799.049M537.031 787.648V799.049M537.031 787.648H548.551V799.049M537.031 799.049H525.511M537.031 799.049H548.551M537.031 799.049V810.45M525.511 799.049V810.45M548.551 799.049V810.45M560.061 787.648H548.541V799.049M560.061 787.648V799.049M560.061 787.648H571.581V799.049M560.061 799.049H548.541M560.061 799.049H571.581M560.061 799.049V810.45M548.541 799.049V810.45M571.581 799.049V810.45M583.091 787.648H571.571V799.049M583.091 787.648V799.049M583.091 787.648H594.611M583.091 799.049H571.571M583.091 799.049H594.611M583.091 799.049V810.45M571.571 799.049V810.45M594.611 787.648V799.049M594.611 787.648H606.131V799.049M594.611 799.049H606.131M594.611 799.049V810.45M606.131 799.049V810.45M617.641 799.049V787.648H606.121V799.049M617.641 799.049H606.121M617.641 799.049V810.45M606.121 799.049V810.45M76.4009 810.45H64.8809M76.4009 810.45H87.9209M76.4009 810.45V821.851M64.8809 810.45V821.851M87.9209 810.45V821.851M99.4309 810.45H87.9109M99.4309 810.45H110.951M99.4309 810.45V821.851M87.9109 810.45V821.851M110.951 810.45V821.851M122.461 810.45H110.941M122.461 810.45H133.981M122.461 810.45V821.851M110.941 810.45V821.851M133.981 810.45H145.501M133.981 810.45V821.851M145.501 810.45V821.851M157.011 810.45H145.491M157.011 810.45H168.531M157.011 810.45V821.851M145.491 810.45V821.851M168.531 810.45V821.851M180.041 810.45H168.521M180.041 810.45H191.561M180.041 810.45V821.851M168.521 810.45V821.851M191.561 810.45H203.081M191.561 810.45V821.851M203.081 810.45V821.851M214.591 810.45H203.071M214.591 810.45H226.111M214.591 810.45V821.851M203.071 810.45V821.851M226.111 810.45V821.851M237.621 810.45H226.101M237.621 810.45H249.141M237.621 810.45V821.851M226.101 810.45V821.851M249.141 810.45V821.851M260.651 810.45H249.131M260.651 810.45H272.171M260.651 810.45V821.851M249.131 810.45V821.851M272.171 810.45H283.691M272.171 810.45V821.851M283.691 810.45V821.851M295.201 810.45H283.681M295.201 810.45H306.721M295.201 810.45V821.851M283.681 810.45V821.851M306.721 810.45V821.851M318.231 810.45H306.711M318.231 810.45H329.751M318.231 810.45V821.851M306.711 810.45V821.851M329.751 810.45V821.851M341.261 810.45H329.741M341.261 810.45H352.781M341.261 810.45V821.851M329.741 810.45V821.851M352.781 810.45H364.301M352.781 810.45V821.851M364.301 810.45V821.851M375.811 810.45H364.291M375.811 810.45H387.331M375.811 810.45V821.851M364.291 810.45V821.851M387.331 810.45V821.851M398.841 810.45H387.321M398.841 810.45H410.361M398.841 810.45V821.851M387.321 810.45V821.851M410.361 810.45V821.851M421.871 810.45H410.351M421.871 810.45H433.391M421.871 810.45V821.851M410.351 810.45V821.851M433.391 810.45H444.911M433.391 810.45V821.851M444.911 810.45V821.851M456.421 810.45H444.901M456.421 810.45H467.941M456.421 810.45V821.851M444.901 810.45V821.851M467.941 810.45V821.851M479.451 810.45H467.931M479.451 810.45H490.971M479.451 810.45V821.851M467.931 810.45V821.851M490.971 810.45V821.851M502.481 810.45H490.961M502.481 810.45H514.001M502.481 810.45V821.851M490.961 810.45V821.851M514.001 810.45H525.521M514.001 810.45V821.851M525.521 810.45V821.851M537.031 810.45H525.511M537.031 810.45H548.551M537.031 810.45V821.851M525.511 810.45V821.851M548.551 810.45V821.851M560.061 810.45H548.541M560.061 810.45H571.581M560.061 810.45V821.851M548.541 810.45V821.851M571.581 810.45V821.851M583.091 810.45H571.571M583.091 810.45H594.611M583.091 810.45V821.851M571.571 810.45V821.851M594.611 810.45H606.131M594.611 810.45V821.851M606.131 810.45V821.851M617.641 810.45H606.121M617.641 810.45V821.851M606.121 810.45V821.851M76.4009 821.851H64.8809M76.4009 821.851H87.9209M76.4009 821.851V833.252M64.8809 821.851V833.252M87.9209 821.851V833.252M99.4309 821.851H87.9109M99.4309 821.851H110.951M99.4309 821.851V833.252M87.9109 821.851V833.252M110.951 821.851V833.252M122.461 821.851H110.941M122.461 821.851H133.981M122.461 821.851V833.252M110.941 821.851V833.252M133.981 821.851H145.501M133.981 821.851V833.252M145.501 821.851V833.252M157.011 821.851H145.491M157.011 821.851H168.531M157.011 821.851V833.252M145.491 821.851V833.252M168.531 821.851V833.252M180.041 821.851H168.521M180.041 821.851H191.561M180.041 821.851V833.252M168.521 821.851V833.252M191.561 821.851H203.081M191.561 821.851V833.252M203.081 821.851V833.252M214.591 821.851H203.071M214.591 821.851H226.111M214.591 821.851V833.252M203.071 821.851V833.252M226.111 821.851V833.252M237.621 821.851H226.101M237.621 821.851H249.141M237.621 821.851V833.252M226.101 821.851V833.252M249.141 821.851V833.252M260.651 821.851H249.131M260.651 821.851H272.171M260.651 821.851V833.252M249.131 821.851V833.252M272.171 821.851H283.691M272.171 821.851V833.252M283.691 821.851V833.252M295.201 821.851H283.681M295.201 821.851H306.721M295.201 821.851V833.252M283.681 821.851V833.252M306.721 821.851V833.252M318.231 821.851H306.711M318.231 821.851H329.751M318.231 821.851V833.252M306.711 821.851V833.252M329.751 821.851V833.252M341.261 821.851H329.741M341.261 821.851H352.781M341.261 821.851V833.252M329.741 821.851V833.252M352.781 821.851H364.301M352.781 821.851V833.252M364.301 821.851V833.252M375.811 821.851H364.291M375.811 821.851H387.331M375.811 821.851V833.252M364.291 821.851V833.252M387.331 821.851V833.252M398.841 821.851H387.321M398.841 821.851H410.361M398.841 821.851V833.252M387.321 821.851V833.252M410.361 821.851V833.252M421.871 821.851H410.351M421.871 821.851H433.391M421.871 821.851V833.252M410.351 821.851V833.252M433.391 821.851H444.911M433.391 821.851V833.252M444.911 821.851V833.252M456.421 821.851H444.901M456.421 821.851H467.941M456.421 821.851V833.252M444.901 821.851V833.252M467.941 821.851V833.252M479.451 821.851H467.931M479.451 821.851H490.971M479.451 821.851V833.252M467.931 821.851V833.252M490.971 821.851V833.252M502.481 821.851H490.961M502.481 821.851H514.001M502.481 821.851V833.252M490.961 821.851V833.252M514.001 821.851H525.521M514.001 821.851V833.252M525.521 821.851V833.252M537.031 821.851H525.511M537.031 821.851H548.551M537.031 821.851V833.252M525.511 821.851V833.252M548.551 821.851V833.252M560.061 821.851H548.541M560.061 821.851H571.581M560.061 821.851V833.252M548.541 821.851V833.252M571.581 821.851V833.252M583.091 821.851H571.571M583.091 821.851H594.611M583.091 821.851V833.252M571.571 821.851V833.252M594.611 821.851H606.131M594.611 821.851V833.252M606.131 821.851V833.252M617.641 821.851H606.121M617.641 821.851V833.252M606.121 821.851V833.252M76.4009 833.252H64.8809M76.4009 833.252H87.9209M76.4009 833.252V844.653M64.8809 833.252V844.653M87.9209 833.252V844.653M99.4309 833.252H87.9109M99.4309 833.252H110.951M99.4309 833.252V844.653M87.9109 833.252V844.653M110.951 833.252V844.653M122.461 833.252H110.941M122.461 833.252H133.981M122.461 833.252V844.653M110.941 833.252V844.653M133.981 833.252H145.501M133.981 833.252V844.653M145.501 833.252V844.653M157.011 833.252H145.491M157.011 833.252H168.531M157.011 833.252V844.653M145.491 833.252V844.653M168.531 833.252V844.653M180.041 833.252H168.521M180.041 833.252H191.561M180.041 833.252V844.653M168.521 833.252V844.653M191.561 833.252H203.081M191.561 833.252V844.653M203.081 833.252V844.653M214.591 833.252H203.071M214.591 833.252H226.111M214.591 833.252V844.653M203.071 833.252V844.653M226.111 833.252V844.653M237.621 833.252H226.101M237.621 833.252H249.141M237.621 833.252V844.653M226.101 833.252V844.653M249.141 833.252V844.653M260.651 833.252H249.131M260.651 833.252H272.171M260.651 833.252V844.653M249.131 833.252V844.653M272.171 833.252H283.691M272.171 833.252V844.653M283.691 833.252V844.653M295.201 833.252H283.681M295.201 833.252H306.721M295.201 833.252V844.653M283.681 833.252V844.653M306.721 833.252V844.653M318.231 833.252H306.711M318.231 833.252H329.751M318.231 833.252V844.653M306.711 833.252V844.653M329.751 833.252V844.653M341.261 833.252H329.741M341.261 833.252H352.781M341.261 833.252V844.653M329.741 833.252V844.653M352.781 833.252H364.301M352.781 833.252V844.653M364.301 833.252V844.653M375.811 833.252H364.291M375.811 833.252H387.331M375.811 833.252V844.653M364.291 833.252V844.653M387.331 833.252V844.653M398.841 833.252H387.321M398.841 833.252H410.361M398.841 833.252V844.653M387.321 833.252V844.653M410.361 833.252V844.653M421.871 833.252H410.351M421.871 833.252H433.391M421.871 833.252V844.653M410.351 833.252V844.653M433.391 833.252H444.911M433.391 833.252V844.653M444.911 833.252V844.653M456.421 833.252H444.901M456.421 833.252H467.941M456.421 833.252V844.653M444.901 833.252V844.653M467.941 833.252V844.653M479.451 833.252H467.931M479.451 833.252H490.971M479.451 833.252V844.653M467.931 833.252V844.653M490.971 833.252V844.653M502.481 833.252H490.961M502.481 833.252H514.001M502.481 833.252V844.653M490.961 833.252V844.653M514.001 833.252H525.521M514.001 833.252V844.653M525.521 833.252V844.653M537.031 833.252H525.511M537.031 833.252H548.551M537.031 833.252V844.653M525.511 833.252V844.653M548.551 833.252V844.653M560.061 833.252H548.541M560.061 833.252H571.581M560.061 833.252V844.653M548.541 833.252V844.653M571.581 833.252V844.653M583.091 833.252H571.571M583.091 833.252H594.611M583.091 833.252V844.653M571.571 833.252V844.653M594.611 833.252H606.131M594.611 833.252V844.653M606.131 833.252V844.653M617.641 833.252H606.121M617.641 833.252V844.653M606.121 833.252V844.653M76.4009 844.653H64.8809M76.4009 844.653H87.9209M76.4009 844.653V856.054M64.8809 844.653V856.054M87.9209 844.653V856.054M99.4309 844.653H87.9109M99.4309 844.653H110.951M99.4309 844.653V856.054M87.9109 844.653V856.054M110.951 844.653V856.054M122.461 844.653H110.941M122.461 844.653H133.981M122.461 844.653V856.054M110.941 844.653V856.054M133.981 844.653H145.501M133.981 844.653V856.054M145.501 844.653V856.054M157.011 844.653H145.491M157.011 844.653H168.531M157.011 844.653V856.054M145.491 844.653V856.054M168.531 844.653V856.054M180.041 844.653H168.521M180.041 844.653H191.561M180.041 844.653V856.054M168.521 844.653V856.054M191.561 844.653H203.081M191.561 844.653V856.054M203.081 844.653V856.054M214.591 844.653H203.071M214.591 844.653H226.111M214.591 844.653V856.054M203.071 844.653V856.054M226.111 844.653V856.054M237.621 844.653H226.101M237.621 844.653H249.141M237.621 844.653V856.054M226.101 844.653V856.054M249.141 844.653V856.054M260.651 844.653H249.131M260.651 844.653H272.171M260.651 844.653V856.054M249.131 844.653V856.054M272.171 844.653H283.691M272.171 844.653V856.054M283.691 844.653V856.054M295.201 844.653H283.681M295.201 844.653H306.721M295.201 844.653V856.054M283.681 844.653V856.054M306.721 844.653V856.054M318.231 844.653H306.711M318.231 844.653H329.751M318.231 844.653V856.054M306.711 844.653V856.054M329.751 844.653V856.054M341.261 844.653H329.741M341.261 844.653H352.781M341.261 844.653V856.054M329.741 844.653V856.054M352.781 844.653H364.301M352.781 844.653V856.054M364.301 844.653V856.054M375.811 844.653H364.291M375.811 844.653H387.331M375.811 844.653V856.054M364.291 844.653V856.054M387.331 844.653V856.054M398.841 844.653H387.321M398.841 844.653H410.361M398.841 844.653V856.054M387.321 844.653V856.054M410.361 844.653V856.054M421.871 844.653H410.351M421.871 844.653H433.391M421.871 844.653V856.054M410.351 844.653V856.054M433.391 844.653H444.911M433.391 844.653V856.054M444.911 844.653V856.054M456.421 844.653H444.901M456.421 844.653H467.941M456.421 844.653V856.054M444.901 844.653V856.054M467.941 844.653V856.054M479.451 844.653H467.931M479.451 844.653H490.971M479.451 844.653V856.054M467.931 844.653V856.054M490.971 844.653V856.054M502.481 844.653H490.961M502.481 844.653H514.001M502.481 844.653V856.054M490.961 844.653V856.054M514.001 844.653H525.521M514.001 844.653V856.054M525.521 844.653V856.054M537.031 844.653H525.511M537.031 844.653H548.551M537.031 844.653V856.054M525.511 844.653V856.054M548.551 844.653V856.054M560.061 844.653H548.541M560.061 844.653H571.581M560.061 844.653V856.054M548.541 844.653V856.054M571.581 844.653V856.054M583.091 844.653H571.571M583.091 844.653H594.611M583.091 844.653V856.054M571.571 844.653V856.054M594.611 844.653H606.131M594.611 844.653V856.054M606.131 844.653V856.054M617.641 844.653H606.121M617.641 844.653V856.054M606.121 844.653V856.054M76.4009 856.054H64.8809M76.4009 856.054H87.9209M76.4009 856.054V867.455M64.8809 856.054V867.455H76.4009M87.9209 856.054V867.455H76.4009M99.4309 856.054H87.9109M99.4309 856.054H110.951M99.4309 856.054V867.455M87.9109 856.054V867.455H99.4309M110.951 856.054V867.455H99.4309M122.461 856.054H110.941M122.461 856.054H133.981M122.461 856.054V867.455M110.941 856.054V867.455H122.461M133.981 856.054H145.501M133.981 856.054V867.455M145.501 856.054V867.455H133.981M157.011 856.054H145.491M157.011 856.054H168.531M157.011 856.054V867.455M145.491 856.054V867.455H157.011M168.531 856.054V867.455H157.011M180.041 856.054H168.521M180.041 856.054H191.561M180.041 856.054V867.455M168.521 856.054V867.455H180.041M191.561 856.054H203.081M191.561 856.054V867.455M203.081 856.054V867.455H191.561M214.591 856.054H203.071M214.591 856.054H226.111M214.591 856.054V867.455M203.071 856.054V867.455H214.591M226.111 856.054V867.455H214.591M237.621 856.054H226.101M237.621 856.054H249.141M237.621 856.054V867.455M226.101 856.054V867.455H237.621M249.141 856.054V867.455H237.621M260.651 856.054H249.131M260.651 856.054H272.171M260.651 856.054V867.455M249.131 856.054V867.455H260.651M272.171 856.054H283.691M272.171 856.054V867.455M283.691 856.054V867.455H272.171M295.201 856.054H283.681M295.201 856.054H306.721M295.201 856.054V867.455M283.681 856.054V867.455H295.201M306.721 856.054V867.455H295.201M318.231 856.054H306.711M318.231 856.054H329.751M318.231 856.054V867.455M306.711 856.054V867.455H318.231M329.751 856.054V867.455H318.231M341.261 856.054H329.741M341.261 856.054H352.781M341.261 856.054V867.455M329.741 856.054V867.455H341.261M352.781 856.054H364.301M352.781 856.054V867.455M364.301 856.054V867.455H352.781M375.811 856.054H364.291M375.811 856.054H387.331M375.811 856.054V867.455M364.291 856.054V867.455H375.811M387.331 856.054V867.455H375.811M398.841 856.054H387.321M398.841 856.054H410.361M398.841 856.054V867.455M387.321 856.054V867.455H398.841M410.361 856.054V867.455H398.841M421.871 856.054H410.351M421.871 856.054H433.391M421.871 856.054V867.455M410.351 856.054V867.455H421.871M433.391 856.054H444.911M433.391 856.054V867.455M444.911 856.054V867.455H433.391M456.421 856.054H444.901M456.421 856.054H467.941M456.421 856.054V867.455M444.901 856.054V867.455H456.421M467.941 856.054V867.455H456.421M479.451 856.054H467.931M479.451 856.054H490.971M479.451 856.054V867.455M467.931 856.054V867.455H479.451M490.971 856.054V867.455H479.451M502.481 856.054H490.961M502.481 856.054H514.001M502.481 856.054V867.455M490.961 856.054V867.455H502.481M514.001 856.054H525.521M514.001 856.054V867.455M525.521 856.054V867.455H514.001M537.031 856.054H525.511M537.031 856.054H548.551M537.031 856.054V867.455M525.511 856.054V867.455H537.031M548.551 856.054V867.455H537.031M560.061 856.054H548.541M560.061 856.054H571.581M560.061 856.054V867.455M548.541 856.054V867.455H560.061M571.581 856.054V867.455H560.061M583.091 856.054H571.571M583.091 856.054H594.611M583.091 856.054V867.455M571.571 856.054V867.455H583.091M594.611 856.054H606.131M594.611 856.054V867.455M606.131 856.054V867.455H594.611M617.641 856.054H606.121M617.641 856.054V867.455H606.121V856.054M122.461 867.455H133.981M180.041 867.455H191.561M260.651 867.455H272.171M341.261 867.455H352.781M421.871 867.455H433.391M502.481 867.455H514.001M583.091 867.455H594.611"
       stroke="#040000"
       stroke-width="0.5"
       id="path84" />
    <path
       d="M398.332 594.598H357.792L65.627 756.957V779.486L398.332 594.598Z"
       fill="#8FD3F5"
       id="path85" />
    <path
       d="M312.565 594.598H272.025L65.627 709.297V731.817L312.565 594.598Z"
       fill="#8FD3F5"
       id="path86" />
    <path
       d="M529.326 594.598L65.627 852.276V866.694H80.2173L569.865 594.598H529.326Z"
       fill="#8FD3F5"
       id="path87" />
    <path
       d="M484.099 594.598H443.559L65.627 804.616V827.146L484.099 594.598Z"
       fill="#8FD3F5"
       id="path88" />
    <path
       d="M226.799 594.598H186.259L65.627 661.638V684.157L226.799 594.598Z"
       fill="#8FD3F5"
       id="path89" />
    <path
       d="M141.032 594.598H100.492L65.627 613.969V636.498L141.032 594.598Z"
       fill="#8FD3F5"
       id="path90" />
    <path
       d="M616.887 616.128V594.598H615.092L125.454 866.694H165.984L616.887 616.128Z"
       fill="#8FD3F5"
       id="path91" />
    <path
       d="M616.887 854.436V831.907L554.288 866.694H594.817L616.887 854.436Z"
       fill="#8FD3F5"
       id="path92" />
    <path
       d="M616.887 759.117V736.588L382.754 866.694H423.284L616.887 759.117Z"
       fill="#8FD3F5"
       id="path93" />
    <path
       d="M616.887 806.776V784.247L468.521 866.694H509.051L616.887 806.776Z"
       fill="#8FD3F5"
       id="path94" />
    <path
       d="M616.887 663.788V641.259L211.221 866.694H251.751L616.887 663.788Z"
       fill="#8FD3F5"
       id="path95" />
    <path
       d="M616.887 711.448V688.928L296.988 866.694H337.517L616.887 711.448Z"
       fill="#8FD3F5"
       id="path96" />
    <rect
       x="65.1289"
       y="594.1"
       width="552.256"
       height="273.092"
       stroke="#E6E6E6"
       stroke-width="0.995486"
       stroke-linecap="round"
       stroke-dasharray="7.96 7.96"
       id="rect96" />
    <text
       xml:space="preserve"
       style="font-size:85.3333px;text-align:start;writing-mode:lr-tb;direction:ltr;text-anchor:start;fill:#8ed3f5;fill-opacity:1"
       x="75.208336"
       y="133.33331"
       id="text2"><tspan
         sodipodi:role="line"
         id="tspan2"
         x="75.208336"
         y="133.33331">GOALDRAFT</tspan></text>
  </g>
  <defs
     id="defs97">
    <clipPath
       id="clip0_133_4009">
      <rect
         width="680.31"
         height="935.43"
         fill="white"
         id="rect97" />
    </clipPath>
  </defs>
</svg>
